<svg width="36" height="37" viewBox="0 0 36 37" fill="none" xmlns="http://www.w3.org/2000/svg">
<rect x="2" y="2.5" width="32" height="32" rx="16" fill="#F4EBFF"/>
<rect x="2" y="2.5" width="32" height="32" rx="16" stroke="#F9F5FF" stroke-width="4"/>
<path d="M19.3337 12.013V14.7667C19.3337 15.1401 19.3337 15.3268 19.4063 15.4694C19.4702 15.5948 19.5722 15.6968 19.6977 15.7607C19.8403 15.8334 20.027 15.8334 20.4003 15.8334H23.154M23.3337 17.1589V21.9667C23.3337 23.0868 23.3337 23.6469 23.1157 24.0747C22.9239 24.451 22.618 24.757 22.2416 24.9487C21.8138 25.1667 21.2538 25.1667 20.1337 25.1667H15.867C14.7469 25.1667 14.1868 25.1667 13.759 24.9487C13.3827 24.757 13.0767 24.451 12.885 24.0747C12.667 23.6469 12.667 23.0868 12.667 21.9667V15.0334C12.667 13.9133 12.667 13.3532 12.885 12.9254C13.0767 12.5491 13.3827 12.2431 13.759 12.0514C14.1868 11.8334 14.7469 11.8334 15.867 11.8334H18.0082C18.4974 11.8334 18.7419 11.8334 18.9721 11.8886C19.1762 11.9376 19.3713 12.0184 19.5502 12.1281C19.7521 12.2518 19.925 12.4247 20.2709 12.7706L22.3964 14.8961C22.7423 15.242 22.9153 15.415 23.0389 15.6168C23.1486 15.7957 23.2294 15.9908 23.2784 16.1949C23.3337 16.4251 23.3337 16.6697 23.3337 17.1589Z" stroke="#334756" stroke-width="1.33333" stroke-linecap="round" stroke-linejoin="round"/>
</svg>
