<svg width="32" height="32" viewBox="0 0 32 32" fill="none" xmlns="http://www.w3.org/2000/svg">
<g clip-path="url(#clip0_733_5434)">
<path d="M6 1H30.5C30.7652 1 31.0196 1.10536 31.2071 1.29289C31.3946 1.48043 31.5 1.73478 31.5 2V4H6V1Z" fill="#6FC3E2"/>
<path d="M31.5 4.5H6C5.86739 4.5 5.74021 4.44732 5.64645 4.35355C5.55268 4.25979 5.5 4.13261 5.5 4V1C5.5 0.867392 5.55268 0.740215 5.64645 0.646447C5.74021 0.552678 5.86739 0.5 6 0.5H30.5C30.8978 0.5 31.2794 0.658035 31.5607 0.93934C31.842 1.22064 32 1.60218 32 2V4C32 4.13261 31.9473 4.25979 31.8536 4.35355C31.7598 4.44732 31.6326 4.5 31.5 4.5ZM6.5 3.5H31V2C31 1.86739 30.9473 1.74021 30.8536 1.64645C30.7598 1.55268 30.6326 1.5 30.5 1.5H6.5V3.5Z" fill="black"/>
<path d="M31.5 4V30C31.5 30.2652 31.3946 30.5196 31.2071 30.7071C31.0196 30.8946 30.7652 31 30.5 31H1.5C1.23478 31 0.98043 30.8946 0.792893 30.7071C0.605357 30.5196 0.5 30.2652 0.5 30V2C0.5 1.73478 0.605357 1.48043 0.792893 1.29289C0.98043 1.10536 1.23478 1 1.5 1H12.0231C12.1545 0.999979 12.2846 1.02586 12.406 1.07615C12.5274 1.12645 12.6377 1.20018 12.7306 1.29313L15.1444 3.70688C15.2373 3.79982 15.3476 3.87355 15.469 3.92385C15.5904 3.97414 15.7205 4.00002 15.8519 4H31.5Z" fill="#EAF2FF"/>
<path d="M30.5 29.5H1.5C1.23478 29.5 0.98043 29.3946 0.792893 29.2071C0.605357 29.0196 0.5 28.7652 0.5 28.5V30C0.5 30.2652 0.605357 30.5196 0.792893 30.7071C0.98043 30.8946 1.23478 31 1.5 31H30.5C30.7652 31 31.0196 30.8946 31.2071 30.7071C31.3946 30.5196 31.5 30.2652 31.5 30V28.5C31.5 28.7652 31.3946 29.0196 31.2071 29.2071C31.0196 29.3946 30.7652 29.5 30.5 29.5Z" fill="#C1D1F7"/>
<path d="M0.5 19.5C0.367392 19.5 0.240215 19.4473 0.146447 19.3536C0.0526784 19.2598 0 19.1326 0 19V2.00001C0 1.60219 0.158035 1.22066 0.43934 0.939354C0.720644 0.658049 1.10218 0.500014 1.5 0.500014H12.2106C12.4078 0.499154 12.6033 0.537373 12.7856 0.612465C12.968 0.687557 13.1337 0.798033 13.2731 0.937514L15.6875 3.35314C15.7335 3.39967 15.7883 3.43661 15.8487 3.46182C15.9091 3.48703 15.9739 3.50001 16.0394 3.50001H31.5C31.6326 3.50001 31.7598 3.55269 31.8536 3.64646C31.9473 3.74023 32 3.86741 32 4.00001C32 4.13262 31.9473 4.2598 31.8536 4.35357C31.7598 4.44734 31.6326 4.50001 31.5 4.50001H16.0394C15.8422 4.50087 15.6467 4.46266 15.4644 4.38756C15.282 4.31247 15.1163 4.202 14.9769 4.06251L12.5625 1.64689C12.5165 1.60036 12.4617 1.56342 12.4013 1.53821C12.3409 1.513 12.2761 1.50002 12.2106 1.50001H1.5C1.36739 1.50001 1.24021 1.55269 1.14645 1.64646C1.05268 1.74023 1 1.86741 1 2.00001V19C1 19.1326 0.947322 19.2598 0.853553 19.3536C0.759785 19.4473 0.632608 19.5 0.5 19.5ZM30.5 31.5H1.5C1.10218 31.5 0.720644 31.342 0.43934 31.0607C0.158035 30.7794 0 30.3978 0 30L0 21C0 20.8674 0.0526784 20.7402 0.146447 20.6465C0.240215 20.5527 0.367392 20.5 0.5 20.5C0.632608 20.5 0.759785 20.5527 0.853553 20.6465C0.947322 20.7402 1 20.8674 1 21V30C1 30.1326 1.05268 30.2598 1.14645 30.3536C1.24021 30.4473 1.36739 30.5 1.5 30.5H30.5C30.6326 30.5 30.7598 30.4473 30.8536 30.3536C30.9473 30.2598 31 30.1326 31 30V6.00001C31 5.86741 31.0527 5.74023 31.1464 5.64646C31.2402 5.55269 31.3674 5.50001 31.5 5.50001C31.6326 5.50001 31.7598 5.55269 31.8536 5.64646C31.9473 5.74023 32 5.86741 32 6.00001V30C32 30.3978 31.842 30.7794 31.5607 31.0607C31.2794 31.342 30.8978 31.5 30.5 31.5Z" fill="black"/>
<path d="M28.5 9H3.5V18H28.5V9Z" fill="#CD4F5F"/>
<path d="M28.5 16.5H3.5V18H28.5V16.5Z" fill="#B24654"/>
<path d="M28.5 18.5H3.5C3.36739 18.5 3.24021 18.4473 3.14645 18.3536C3.05268 18.2598 3 18.1326 3 18V9C3 8.86739 3.05268 8.74021 3.14645 8.64645C3.24021 8.55268 3.36739 8.5 3.5 8.5H28.5C28.6326 8.5 28.7598 8.55268 28.8536 8.64645C28.9473 8.74021 29 8.86739 29 9V18C29 18.1326 28.9473 18.2598 28.8536 18.3536C28.7598 18.4473 28.6326 18.5 28.5 18.5ZM4 17.5H28V9.5H4V17.5Z" fill="black"/>
<path d="M14.5 21H3.5V28H14.5V21Z" fill="#B1DA7A"/>
<path d="M14.5 26.5H3.5V28H14.5V26.5Z" fill="#96BF5B"/>
<path d="M14.5 28.5H3.5C3.36739 28.5 3.24021 28.4473 3.14645 28.3536C3.05268 28.2598 3 28.1326 3 28V21C3 20.8674 3.05268 20.7402 3.14645 20.6464C3.24021 20.5527 3.36739 20.5 3.5 20.5H14.5C14.6326 20.5 14.7598 20.5527 14.8536 20.6464C14.9473 20.7402 15 20.8674 15 21V28C15 28.1326 14.9473 28.2598 14.8536 28.3536C14.7598 28.4473 14.6326 28.5 14.5 28.5ZM4 27.5H14V21.5H4V27.5Z" fill="black"/>
<path d="M28.5 21H17.5V28H28.5V21Z" fill="#EAD590"/>
<path d="M28.5 26.5H17.5V28H28.5V26.5Z" fill="#F1CB66"/>
<path d="M28.5001 28.5002H17.5001C17.3674 28.5002 17.2403 28.4475 17.1465 28.3537C17.0527 28.26 17.0001 28.1328 17.0001 28.0002V21.0002C17.0001 20.8676 17.0527 20.7404 17.1465 20.6466C17.2403 20.5529 17.3674 20.5002 17.5001 20.5002H28.5001C28.6327 20.5002 28.7598 20.5529 28.8536 20.6466C28.9474 20.7404 29.0001 20.8676 29.0001 21.0002V28.0002C29.0001 28.1328 28.9474 28.26 28.8536 28.3537C28.7598 28.4475 28.6327 28.5002 28.5001 28.5002ZM18.0001 27.5002H28.0001V21.5002H18.0001V27.5002ZM28.5001 18.5002C28.3651 18.5002 30.1663 19.1314 3.33068 9.4708C3.20586 9.42588 3.104 9.33321 3.04751 9.21319C2.99101 9.09317 2.98451 8.95562 3.02943 8.8308C3.07435 8.70598 3.16701 8.60412 3.28704 8.54763C3.40706 8.49113 3.54461 8.48463 3.66943 8.52955L28.6694 17.5296C28.7803 17.5693 28.8736 17.647 28.9328 17.7488C28.992 17.8506 29.0134 17.9701 28.9931 18.0861C28.9729 18.2022 28.9123 18.3073 28.8221 18.3831C28.7319 18.4588 28.6178 18.5003 28.5001 18.5002Z" fill="black"/>
<path d="M3.50003 18.5002C3.38224 18.5003 3.26819 18.4588 3.17798 18.3831C3.08777 18.3073 3.0272 18.2022 3.00696 18.0861C2.98671 17.9701 3.00808 17.8506 3.0673 17.7488C3.12652 17.647 3.21979 17.5693 3.33066 17.5296L28.3307 8.52955C28.4555 8.48463 28.593 8.49113 28.713 8.54763C28.8331 8.60412 28.9257 8.70598 28.9707 8.8308C29.0156 8.95562 29.0091 9.09317 28.9526 9.21319C28.8961 9.33321 28.7942 9.42588 28.6694 9.4708C1.83066 19.1327 3.63441 18.5002 3.50003 18.5002ZM14.2319 28.4221L3.23191 21.4221C3.12329 21.3495 3.04738 21.2373 3.02043 21.1095C2.99348 20.9816 3.01762 20.8484 3.08769 20.7381C3.15776 20.6279 3.26819 20.5494 3.39536 20.5195C3.52253 20.4897 3.65634 20.5108 3.76816 20.5783L14.7682 27.5783C14.8252 27.6127 14.8748 27.6582 14.914 27.7121C14.9532 27.766 14.9812 27.8271 14.9964 27.892C15.0117 27.9568 15.0138 28.0241 15.0027 28.0898C14.9915 28.1555 14.9674 28.2183 14.9317 28.2745C14.8959 28.3307 14.8493 28.3792 14.7946 28.4172C14.7398 28.4552 14.678 28.4818 14.6128 28.4955C14.5476 28.5093 14.4804 28.5099 14.415 28.4972C14.3495 28.4846 14.2873 28.4591 14.2319 28.4221Z" fill="black"/>
<path d="M3.07816 28.2683C3.00788 28.1566 2.9846 28.0217 3.0134 27.8929C3.0422 27.7641 3.12075 27.6519 3.23191 27.5808L14.2319 20.5808C14.2873 20.5438 14.3495 20.5183 14.415 20.5056C14.4804 20.493 14.5477 20.4936 14.6128 20.5073C14.678 20.5211 14.7398 20.5477 14.7946 20.5857C14.8493 20.6236 14.8959 20.6722 14.9317 20.7284C14.9674 20.7846 14.9915 20.8474 15.0027 20.9131C15.0138 20.9788 15.0117 21.046 14.9964 21.1109C14.9812 21.1758 14.9532 21.2369 14.914 21.2908C14.8748 21.3447 14.8252 21.3901 14.7682 21.4246L3.76816 28.4246C3.71261 28.4597 3.65068 28.4835 3.58593 28.4946C3.52117 28.5057 3.45486 28.504 3.39078 28.4895C3.3267 28.475 3.2661 28.448 3.21246 28.41C3.15882 28.3721 3.11319 28.3239 3.07816 28.2683ZM28.2319 28.4221L17.2319 21.4221C17.1233 21.3495 17.0474 21.2373 17.0204 21.1095C16.9935 20.9817 17.0176 20.8484 17.0877 20.7381C17.1578 20.6279 17.2682 20.5494 17.3954 20.5196C17.5225 20.4897 17.6563 20.5108 17.7682 20.5783L28.7682 27.5783C28.8252 27.6128 28.8748 27.6583 28.914 27.7121C28.9532 27.766 28.9812 27.8272 28.9964 27.892C29.0117 27.9569 29.0138 28.0241 29.0027 28.0898C28.9915 28.1555 28.9674 28.2183 28.9317 28.2745C28.8959 28.3308 28.8493 28.3793 28.7946 28.4172C28.7398 28.4552 28.678 28.4818 28.6128 28.4956C28.5477 28.5093 28.4804 28.5099 28.415 28.4973C28.3495 28.4847 28.2873 28.4591 28.2319 28.4221Z" fill="black"/>
<path d="M17.0781 28.2681C17.0078 28.1564 16.9846 28.0215 17.0134 27.8927C17.0422 27.7639 17.1207 27.6517 17.2319 27.5806L28.2319 20.5806C28.3437 20.5131 28.4775 20.492 28.6047 20.5219C28.7318 20.5517 28.8423 20.6302 28.9123 20.7404C28.9824 20.8507 29.0066 20.984 28.9796 21.1118C28.9526 21.2396 28.8767 21.3518 28.7681 21.4244L17.7681 28.4244C17.7126 28.4595 17.6506 28.4832 17.5859 28.4944C17.5211 28.5055 17.4548 28.5038 17.3907 28.4893C17.3267 28.4747 17.2661 28.4477 17.2124 28.4098C17.1588 28.3719 17.1131 28.3237 17.0781 28.2681ZM5.5 7H3.5C3.36739 7 3.24021 6.94732 3.14645 6.85355C3.05268 6.75979 3 6.63261 3 6.5C3 6.36739 3.05268 6.24021 3.14645 6.14645C3.24021 6.05268 3.36739 6 3.5 6H5.5C5.63261 6 5.75979 6.05268 5.85355 6.14645C5.94732 6.24021 6 6.36739 6 6.5C6 6.63261 5.94732 6.75979 5.85355 6.85355C5.75979 6.94732 5.63261 7 5.5 7ZM10.5 7H8.5C8.36739 7 8.24021 6.94732 8.14645 6.85355C8.05268 6.75979 8 6.63261 8 6.5C8 6.36739 8.05268 6.24021 8.14645 6.14645C8.24021 6.05268 8.36739 6 8.5 6H10.5C10.6326 6 10.7598 6.05268 10.8536 6.14645C10.9473 6.24021 11 6.36739 11 6.5C11 6.63261 10.9473 6.75979 10.8536 6.85355C10.7598 6.94732 10.6326 7 10.5 7Z" fill="black"/>
<path d="M10.5 4C10.7761 4 11 3.77614 11 3.5C11 3.22386 10.7761 3 10.5 3C10.2239 3 10 3.22386 10 3.5C10 3.77614 10.2239 4 10.5 4Z" fill="#F6F6F6"/>
<path d="M10.5 4.5C10.3022 4.5 10.1089 4.44135 9.94443 4.33147C9.77998 4.22159 9.65181 4.06541 9.57612 3.88268C9.50043 3.69996 9.48063 3.49889 9.51922 3.30491C9.5578 3.11093 9.65304 2.93275 9.79289 2.79289C9.93275 2.65304 10.1109 2.5578 10.3049 2.51922C10.4989 2.48063 10.7 2.50043 10.8827 2.57612C11.0654 2.65181 11.2216 2.77998 11.3315 2.94443C11.4414 3.10888 11.5 3.30222 11.5 3.5C11.5 3.76522 11.3946 4.01957 11.2071 4.20711C11.0196 4.39464 10.7652 4.5 10.5 4.5Z" fill="black"/>
<path d="M3.5 4C3.77614 4 4 3.77614 4 3.5C4 3.22386 3.77614 3 3.5 3C3.22386 3 3 3.22386 3 3.5C3 3.77614 3.22386 4 3.5 4Z" fill="#F6F6F6"/>
<path d="M3.5 4.5C3.30222 4.5 3.10888 4.44135 2.94443 4.33147C2.77998 4.22159 2.65181 4.06541 2.57612 3.88268C2.50043 3.69996 2.48063 3.49889 2.51922 3.30491C2.5578 3.11093 2.65304 2.93275 2.79289 2.79289C2.93275 2.65304 3.11093 2.5578 3.30491 2.51922C3.49889 2.48063 3.69996 2.50043 3.88268 2.57612C4.06541 2.65181 4.22159 2.77998 4.33147 2.94443C4.44135 3.10888 4.5 3.30222 4.5 3.5C4.5 3.76522 4.39464 4.01957 4.20711 4.20711C4.01957 4.39464 3.76522 4.5 3.5 4.5Z" fill="black"/>
<path d="M7 4C7.27614 4 7.5 3.77614 7.5 3.5C7.5 3.22386 7.27614 3 7 3C6.72386 3 6.5 3.22386 6.5 3.5C6.5 3.77614 6.72386 4 7 4Z" fill="#F6F6F6"/>
<path d="M7 4.5C6.80222 4.5 6.60888 4.44135 6.44443 4.33147C6.27998 4.22159 6.15181 4.06541 6.07612 3.88268C6.00043 3.69996 5.98063 3.49889 6.01922 3.30491C6.0578 3.11093 6.15304 2.93275 6.29289 2.79289C6.43275 2.65304 6.61093 2.5578 6.80491 2.51922C6.99889 2.48063 7.19996 2.50043 7.38268 2.57612C7.56541 2.65181 7.72159 2.77998 7.83147 2.94443C7.94135 3.10888 8 3.30222 8 3.5C8 3.76522 7.89464 4.01957 7.70711 4.20711C7.51957 4.39464 7.26522 4.5 7 4.5Z" fill="black"/>
</g>
<defs>
<clipPath id="clip0_733_5434">
<rect width="32" height="32" fill="white"/>
</clipPath>
</defs>
</svg>
